<?xml version="1.0" encoding="utf-8"?>
<!-- Generator: Adobe Illustrator 22.0.1, SVG Export Plug-In . SVG Version: 6.00 Build 0)  -->
<svg version="1.1" id="Camada_1" xmlns="http://www.w3.org/2000/svg" xmlns:xlink="http://www.w3.org/1999/xlink" x="0px" y="0px"
	 viewBox="0 0 610.2 100" style="enable-background:new 0 0 610.2 100;" xml:space="preserve">
<style type="text/css">
	.st0{fill:#074E95;}
	.st1{fill:#01458E;}
</style>
<path class="st0" d="M534.7-303c-0.4,0-0.4,0-0.3-0.3C534.5-303.2,534.6-303.1,534.7-303z"/>
<g>
	<path class="st1" d="M156.6,67.1c0,15.2-6.6,27.8-6.6,27.8c-4-5.3-18.3-24.6-22.8-30.8c-3.5-4.9-8.3-11.4-9.9-13.6
		c0,0-0.5,3.6-1.6,6.5c-1.6,4.1-4.1,7.1-6.1,9.8c-5.1,6.8-11.7,14.7-13.9,17.6c-2.5,3.3-5.2,6.6-6.8,4.5c-1.7-2.1,3.3-10.7,5.2-14.6
		c5.5-11.5,10.8-20.1,11.6-32.9c0.4-6.7-3.2-12.3-7-17c-2-2.6-4.1-5.6-5.8-7.9c-3.2-4.4-5-6.8-5.4-7.3c0,0,0.1,7.2-3.3,12.8
		c-8.6,14.5-48.3,75-48.3,75c-4.7-8.9-7.4-19.1-7.4-29.9C28.3,31.7,57,3,92.4,3S156.6,31.7,156.6,67.1z"/>
	<g>
		<path class="st0" d="M581.9,41.6c-0.4,0.9-0.7,1.9-1.2,2.8c-1.9,3.2-5.8,5-9.5,4.2c-1.7-0.3-3-1.3-4-2.6c-1.5-1.8-3-3.6-5.4-4.1
			c-2.1-0.4-4.1-0.3-6.1,0.6c-0.8,0.4-1.4,0.9-1.9,1.6c-1.4,2.1-1,3.8,1.3,4.9c3,1.4,6.3,2.2,9.4,3.3c1.5,0.6,3,1.1,4.5,1.7
			c6.2,2.8,8.5,7.6,6.7,14.2c-2.4,8.6-7.9,14.3-16.4,17c-7.5,2.4-15.1,2.7-22.8,1c-1.3-0.3-2.6-0.8-3.8-1.4c-7.2-3.6-6.4-10.7-3-15
			c1.6-2,3.7-3.2,6.3-3.6c2.5-0.4,4.6,0.3,6.1,2.4c0.8,1.1,1.6,2.3,2.5,3.4c2.8,3.5,10.2,2.5,12.4,0.2c2-2.2,1.8-4.5-1-5.6
			c-3.4-1.3-6.8-2.4-10.3-3.7c-1.5-0.5-2.9-1.2-4.3-1.8c-5.4-2.4-7.3-7.3-6.1-12.6c1.6-7,5.5-12.2,11.9-15.4
			c8.6-4.3,17.7-4.7,26.9-2.1c1.2,0.3,2.4,1,3.5,1.6c2.1,1.3,3.5,3.1,4.4,5.3C581.9,39.2,581.9,40.4,581.9,41.6z"/>
		<path class="st0" d="M225.8,56.6c5,2.3,5.8,5.3,5.5,9.3c-0.1,1.2-0.4,2.5-0.8,3.6c-3.2,9.3-9.7,14.5-19.4,15.8
			c-7.2,1-14.5,0.4-21.8,0.5c-2.3,0-4.6,0.2-6.8-0.2c-0.4-0.1-0.8-0.1-1.2-0.2c-3-0.7-4.3-2.6-3.9-5.7c0.3-3,1.4-5.7,2.3-8.5
			c3.1-10.2,6.2-20.4,9.4-30.5c0.3-0.8,0.6-1.6,0.9-2.5c1.7-4.2,5-6.5,9.4-6.7c8.9-0.4,17.7-0.5,26.6,0.2c1.4,0.1,2.8,0.5,4.1,0.9
			c5.2,1.9,7.3,5.7,6.2,11.1c-1.2,5.8-4.4,9.9-9.6,12.5C226.4,56.3,226.1,56.4,225.8,56.6z M196.5,73c3.6,0,7,0.1,10.4,0
			c3.2-0.2,5.8-1.3,7-4.6c1-2.9,0.1-4.7-3-5.1c-3.6-0.5-7.2-0.1-10.8-0.2c-0.3,0-0.5,0.1-0.6,0.4C198.5,66.6,197.5,69.8,196.5,73z
			 M202.7,52.9c3.2,0,6.3,0.1,9.4,0c2.9-0.1,5.1-1.4,6.1-4.3c1-2.9,0.2-4.4-2.9-4.7c-3-0.4-6.1-0.1-9.1-0.2c-0.5,0-0.7,0.2-0.8,0.6
			C204.5,47,203.6,49.9,202.7,52.9z"/>
		<path class="st0" d="M310.1,49.8c5.4,0,10.6,0,15.9,0c0.7,0,0.8-0.4,0.9-0.9c1.1-3.5,2.1-7,3.2-10.5c2-6.2,8.2-9.5,14.5-7.7
			c3.1,0.9,4.5,3.2,3.8,6.3c-0.8,3.7-2.1,7.2-3.2,10.8c-3.1,10.3-6.2,20.5-9.4,30.8c-2,6.4-8.8,9.7-15.1,7.4
			c-2.4-0.9-3.7-2.9-3.3-5.4c0.5-3.5,1.9-6.8,2.9-10.2c0.4-1.6,0.9-3.2,1.5-4.8c0.2-0.7,0-0.8-0.6-0.8c-5,0-10,0-15,0
			c-0.8,0-0.9,0.4-1.1,1c-1.3,4.2-2.6,8.5-3.9,12.7c-2.3,7.5-9.3,9.2-14.8,7.8c-3.1-0.8-4.4-3.1-3.5-6.4c1.5-5.2,3.1-10.3,4.6-15.5
			c2.6-8.7,5.3-17.3,7.9-26c2.4-7.6,9.7-8.9,14.6-7.6c3.1,0.8,4.4,3.1,3.5,6.4c-1,3.8-2.2,7.6-3.2,11.4
			C310.3,48.9,310.2,49.3,310.1,49.8z"/>
		<path class="st0" d="M455.9,81.2c-1.9,1.4-3.8,2.7-5.8,3.5c-7.3,3-14.8,3.8-22.3,1.1c-5.7-2.1-8.9-6.5-9.5-12.4
			c-1.1-9.9,1.8-18.9,7.4-27c8.2-11.8,19.9-17.1,34.2-16.5c3.9,0.2,7.7,0.9,11.1,2.8c3.7,2.1,5.5,5.4,4.9,9
			c-0.7,4.2-3.8,7.4-7.9,8.2c-3.3,0.7-5.9-0.1-8.1-2.8c-3.5-4.3-8.2-4.9-13.1-2c-2,1.2-3.6,2.9-4.9,4.9c-3.2,5-5.1,10.5-5.6,16.5
			c-0.1,1,0,2.1,0.3,3.1c0.5,2.1,1.8,3.5,3.9,4.2c4.8,1.6,11.4-0.5,14.5-4.5c0.3-0.4,1-0.9,0.8-1.4c-0.2-0.5-1-0.2-1.5-0.2
			c-1.2,0-2.4-0.1-3.6-0.5c-1.7-0.6-2.4-1.8-2.2-3.5c0.6-4.2,2.9-6.8,7.1-7.4c4.5-0.6,9.1-0.6,13.6,0c3.3,0.5,4.9,2.7,4.5,6.1
			c-0.1,1.3-0.4,2.5-0.8,3.7c-1.4,4.5-2.8,9.1-4.2,13.6c-0.4,1.3-0.9,2.5-1.7,3.6c-2.2,3.2-6,3.9-9.2,3.2c-1.7-0.4-2.5-1.5-2.4-3.2
			C455.7,82.6,455.8,82,455.9,81.2z"/>
		<path class="st0" d="M403.5,30.4c1.2,0,2.4-0.1,3.6,0c2.7,0.1,4.2,1.3,4.9,3.9c0.8,2.6,0.7,5.3,0.9,8c0.7,11.3,1.3,22.5,2,33.8
			c0.4,6.9-6.8,12.4-13.3,10.4c-2.3-0.7-3.3-2.4-3.5-4.6c-0.1-0.8-0.2-1.5-0.2-2.3c0-0.8-0.4-0.9-1-0.9c-5.3,0-10.6,0-16,0
			c-0.7,0-1,0.2-1.4,0.8c-1.3,1.9-2.5,3.8-4.4,5.2c-2.5,1.8-5.2,2.6-8.2,2c-3.4-0.7-4.8-3-4.1-6.3c0.4-1.8,1.1-3.5,2.1-5
			c8.3-12.5,16.6-24.9,24.9-37.4c0.9-1.4,1.9-2.7,3.1-4c2.2-2.3,4.8-3.5,8-3.5C401.8,30.3,402.6,30.3,403.5,30.4
			C403.5,30.3,403.5,30.3,403.5,30.4z M398,48.5c-3.8,6.3-7.5,12.3-11.2,18.6c3.6,0,7.1,0,10.5,0c0.6,0,0.7-0.2,0.7-0.8
			C398,60.5,398,54.6,398,48.5z"/>
		<path class="st0" d="M513,30.3c1,0,2,0,3,0c3.5,0.1,5.2,1.6,5.7,5.1c0.4,3,0.5,6.1,0.7,9.1c0.7,10.1,1.2,20.2,1.9,30.3
			c0.5,7.2-4.4,12.3-11.4,12c-3.2-0.2-4.9-1.8-5.2-5c0-0.5-0.1-1-0.2-1.5c-0.1-1.6-0.1-1.6-1.8-1.6c-4.8,0-9.7,0-14.5,0
			c-1.1,0-1.7,0.3-2.2,1.2c-1.1,1.7-2.2,3.4-3.9,4.7c-2.5,1.9-5.2,2.7-8.3,2.1c-3.2-0.7-4.7-2.9-4.1-6.2c0.4-1.8,1.1-3.6,2.1-5.2
			c8.4-12.7,16.8-25.4,25.1-38.1c0.7-1.1,1.6-2.2,2.5-3.2c2.2-2.4,4.9-3.7,8.2-3.6C511.5,30.4,512.2,30.3,513,30.3
			C513,30.3,513,30.3,513,30.3z M507.6,48.5c-3.7,6.2-7.4,12.3-11.1,18.6c3.6,0,7,0,10.4,0c0.6,0,0.7-0.3,0.7-0.8
			C507.6,60.4,507.6,54.5,507.6,48.5z"/>
		<path class="st0" d="M268.6,30.4c1.5,0,3.1-0.2,4.6,0.2c1.9,0.4,3,1.5,3.6,3.3c0.7,2.2,0.7,4.6,0.9,6.9c0.5,8.4,1,16.8,1.5,25.3
			c0.2,3.2,0.5,6.4,0.6,9.6c0.1,8.2-6.8,12.4-12.9,10.9c-2-0.5-3.1-1.9-3.5-3.8c-0.1-0.7-0.2-1.5-0.3-2.3c-0.1-2,0.1-1.7-1.9-1.7
			c-4.7,0-9.4,0-14.2,0c-1.1,0-1.7,0.4-2.3,1.2c-0.9,1.4-1.8,2.8-2.9,3.9c-2.7,2.6-5.8,3.5-9.5,2.7c-2.5-0.5-4-2.6-3.7-5.1
			c0.2-2,0.8-3.9,1.9-5.6c8.4-12.9,16.8-25.7,25.2-38.5c0.6-0.9,1.2-1.7,1.9-2.5C260.4,31,264.2,29.8,268.6,30.4z M263.2,48.6
			c-3.6,6.2-7.2,12.3-10.8,18.5c3.5,0,6.8,0,10.2,0c0.5,0,0.7-0.2,0.7-0.7C263.2,60.5,263.2,54.6,263.2,48.6z"/>
		<path class="st0" d="M347.2,86.5c-1,0-2.2-0.1-3.4-0.5c-2.7-0.9-3.9-2.8-3.4-5.6c0.6-3.2,1.8-6.3,2.8-9.4
			c3.3-10.7,6.7-21.5,10.1-32.2c2.4-7.8,9.6-9.3,15-8.1c3.4,0.8,4.8,3.2,3.8,6.6c-1.3,4.6-2.8,9.2-4.3,13.8
			c-2.8,8.9-5.6,17.7-8.4,26.6C357.6,83.5,353.5,86.5,347.2,86.5z"/>
		<path class="st0" d="M522.6,12.6c0.9,0,1.7,0.2,2.4,0.7c1.1,0.8,1.5,2,0.9,3.3c-0.4,1-1.1,1.8-1.9,2.4c-3.3,2.5-6.6,4.9-9.9,7.3
			c-1,0.7-2.1,1.2-3.3,1.4c-0.7,0.1-1.5,0-1.9-0.7c-0.4-0.6-0.3-1.3,0-1.9c0.2-0.4,0.4-0.8,0.7-1.1c3-3.2,5.9-6.3,8.9-9.4
			C519.6,13.3,520.9,12.5,522.6,12.6z"/>
	</g>
</g>
</svg>
