<?xml version="1.0" encoding="utf-8"?>
<!-- Generator: Adobe Illustrator 22.0.1, SVG Export Plug-In . SVG Version: 6.00 Build 0)  -->
<svg version="1.1" id="Camada_1" xmlns="http://www.w3.org/2000/svg" xmlns:xlink="http://www.w3.org/1999/xlink" x="0px" y="0px"
	 viewBox="0 0 262.4 43" style="enable-background:new 0 0 262.4 43;" xml:space="preserve">
<style type="text/css">
	.st0{fill:#074E95;}
	.st1{fill:#FFFFFF;}
</style>
<path class="st0" d="M360.8-331.5c-0.4,0-0.4,0-0.3-0.3C360.6-331.7,360.7-331.6,360.8-331.5z"/>
<g>
	<path class="st1" d="M63.2,29.3c0,6.9-3,12.7-3,12.7c-1.8-2.4-8.4-11.3-10.4-14.1c-1.6-2.2-3.8-5.2-4.5-6.2c0,0-0.2,1.6-0.7,3
		c-0.7,1.9-1.9,3.3-2.8,4.5c-2.3,3.1-5.4,6.7-6.4,8.1c-1.1,1.5-2.4,3-3.1,2c-0.8-1,1.5-4.9,2.4-6.7c2.5-5.3,4.9-9.2,5.3-15
		c0.2-3.1-1.5-5.6-3.2-7.8c-0.9-1.2-1.9-2.5-2.7-3.6c-1.5-2-2.3-3.1-2.5-3.3c0,0,0,3.3-1.5,5.9C26.1,15.3,8,43,8,43
		c-2.2-4.1-3.4-8.7-3.4-13.7C4.6,13.1,17.7,0,33.9,0S63.2,13.1,63.2,29.3z"/>
	<g>
		<path class="st1" d="M257.8,17.7c-0.2,0.4-0.3,0.9-0.6,1.3c-0.9,1.5-2.7,2.3-4.3,1.9c-0.8-0.2-1.4-0.6-1.8-1.2
			c-0.7-0.8-1.4-1.6-2.5-1.9c-1-0.2-1.9-0.1-2.8,0.3c-0.4,0.2-0.6,0.4-0.9,0.7c-0.6,0.9-0.4,1.8,0.6,2.2c1.4,0.6,2.9,1,4.3,1.5
			c0.7,0.3,1.4,0.5,2,0.8c2.8,1.3,3.9,3.5,3.1,6.5c-1.1,3.9-3.6,6.5-7.5,7.8c-3.4,1.1-6.9,1.3-10.4,0.4c-0.6-0.1-1.2-0.4-1.7-0.7
			c-3.3-1.7-2.9-4.9-1.4-6.9c0.7-0.9,1.7-1.5,2.9-1.6c1.1-0.2,2.1,0.2,2.8,1.1c0.4,0.5,0.7,1.1,1.1,1.6c1.3,1.6,4.7,1.2,5.7,0.1
			c0.9-1,0.8-2.1-0.5-2.6c-1.5-0.6-3.1-1.1-4.7-1.7c-0.7-0.2-1.3-0.5-2-0.8c-2.5-1.1-3.3-3.4-2.8-5.8c0.7-3.2,2.5-5.6,5.4-7
			c4-2,8.1-2.2,12.3-1c0.6,0.2,1.1,0.4,1.6,0.7c1,0.6,1.6,1.4,2,2.4C257.8,16.6,257.8,17.1,257.8,17.7z"/>
		<path class="st1" d="M94.9,24.5c2.3,1,2.7,2.4,2.5,4.3c0,0.6-0.2,1.1-0.4,1.7c-1.5,4.2-4.4,6.6-8.9,7.2c-3.3,0.4-6.7,0.2-10,0.2
			c-1,0-2.1,0.1-3.1-0.1c-0.2,0-0.4-0.1-0.5-0.1c-1.4-0.3-2-1.2-1.8-2.6c0.2-1.4,0.6-2.6,1-3.9c1.4-4.7,2.9-9.3,4.3-14
			c0.1-0.4,0.3-0.8,0.4-1.1c0.8-1.9,2.3-3,4.3-3.1c4.1-0.2,8.1-0.2,12.2,0.1c0.6,0,1.3,0.2,1.9,0.4c2.4,0.9,3.3,2.6,2.8,5.1
			c-0.5,2.6-2,4.5-4.4,5.7C95.2,24.4,95.1,24.4,94.9,24.5z M81.5,32c1.6,0,3.2,0.1,4.8,0c1.4-0.1,2.7-0.6,3.2-2.1
			c0.5-1.3,0-2.1-1.4-2.3c-1.6-0.2-3.3-0.1-4.9-0.1c-0.1,0-0.2,0-0.3,0.2C82.4,29.1,82,30.5,81.5,32z M84.4,22.8
			c1.5,0,2.9,0.1,4.3,0c1.3-0.1,2.3-0.6,2.8-2c0.5-1.3,0.1-2-1.3-2.2c-1.4-0.2-2.8-0.1-4.2-0.1c-0.2,0-0.3,0.1-0.4,0.3
			C85.2,20.1,84.8,21.4,84.4,22.8z"/>
		<path class="st1" d="M133.5,21.4c2.5,0,4.9,0,7.3,0c0.3,0,0.3-0.2,0.4-0.4c0.5-1.6,1-3.2,1.5-4.8c0.9-2.8,3.8-4.3,6.6-3.5
			c1.4,0.4,2.1,1.4,1.8,2.9c-0.4,1.7-0.9,3.3-1.4,4.9c-1.4,4.7-2.9,9.4-4.3,14.1c-0.9,2.9-4,4.4-6.9,3.4c-1.1-0.4-1.7-1.3-1.5-2.5
			c0.2-1.6,0.9-3.1,1.3-4.7c0.2-0.7,0.4-1.5,0.7-2.2c0.1-0.3,0-0.4-0.3-0.4c-2.3,0-4.6,0-6.9,0c-0.4,0-0.4,0.2-0.5,0.4
			c-0.6,1.9-1.2,3.9-1.8,5.8c-1.1,3.4-4.3,4.2-6.8,3.6c-1.4-0.4-2-1.4-1.6-2.9c0.7-2.4,1.4-4.7,2.1-7.1c1.2-4,2.4-7.9,3.6-11.9
			c1.1-3.5,4.5-4.1,6.7-3.5c1.4,0.4,2,1.4,1.6,2.9c-0.4,1.7-1,3.5-1.5,5.2C133.6,21,133.5,21.2,133.5,21.4z"/>
		<path class="st1" d="M200.2,35.8c-0.9,0.6-1.7,1.2-2.7,1.6c-3.3,1.4-6.8,1.7-10.2,0.5c-2.6-0.9-4.1-3-4.4-5.7
			c-0.5-4.5,0.8-8.7,3.4-12.3c3.8-5.4,9.1-7.8,15.6-7.6c1.8,0.1,3.5,0.4,5.1,1.3c1.7,1,2.5,2.5,2.2,4.1c-0.3,1.9-1.8,3.4-3.6,3.7
			c-1.5,0.3-2.7-0.1-3.7-1.3c-1.6-1.9-3.8-2.2-6-0.9c-0.9,0.6-1.7,1.3-2.2,2.2c-1.5,2.3-2.3,4.8-2.6,7.5c0,0.5,0,0.9,0.1,1.4
			c0.2,1,0.8,1.6,1.8,1.9c2.2,0.7,5.2-0.2,6.6-2.1c0.2-0.2,0.4-0.4,0.3-0.6c-0.1-0.2-0.5-0.1-0.7-0.1c-0.6,0-1.1,0-1.6-0.2
			c-0.8-0.3-1.1-0.8-1-1.6c0.3-1.9,1.3-3.1,3.3-3.4c2.1-0.3,4.2-0.3,6.2,0c1.5,0.2,2.2,1.2,2.1,2.8c-0.1,0.6-0.2,1.2-0.3,1.7
			c-0.6,2.1-1.3,4.2-1.9,6.2c-0.2,0.6-0.4,1.1-0.8,1.6c-1,1.5-2.7,1.8-4.2,1.5c-0.8-0.2-1.1-0.7-1.1-1.5
			C200.1,36.4,200.1,36.1,200.2,35.8z"/>
		<path class="st1" d="M176.2,12.5c0.5,0,1.1,0,1.6,0c1.2,0.1,1.9,0.6,2.3,1.8c0.4,1.2,0.3,2.4,0.4,3.6c0.3,5.1,0.6,10.3,0.9,15.4
			c0.2,3.1-3.1,5.7-6.1,4.8c-1-0.3-1.5-1.1-1.6-2.1c0-0.3-0.1-0.7-0.1-1c0-0.4-0.2-0.4-0.5-0.4c-2.4,0-4.9,0-7.3,0
			c-0.3,0-0.5,0.1-0.6,0.3c-0.6,0.8-1.1,1.8-2,2.4c-1.1,0.8-2.4,1.2-3.8,0.9c-1.5-0.3-2.2-1.4-1.9-2.9c0.2-0.8,0.5-1.6,1-2.3
			c3.8-5.7,7.6-11.4,11.4-17.1c0.4-0.6,0.9-1.3,1.4-1.8c1-1.1,2.2-1.6,3.6-1.6C175.4,12.5,175.8,12.5,176.2,12.5
			C176.2,12.5,176.2,12.5,176.2,12.5z M173.7,20.8c-1.7,2.9-3.4,5.6-5.1,8.5c1.7,0,3.2,0,4.8,0c0.3,0,0.3-0.1,0.3-0.3
			C173.7,26.3,173.7,23.6,173.7,20.8z"/>
		<path class="st1" d="M226.3,12.5c0.5,0,0.9,0,1.4,0c1.6,0,2.4,0.7,2.6,2.3c0.2,1.4,0.2,2.8,0.3,4.2c0.3,4.6,0.6,9.2,0.9,13.9
			c0.2,3.3-2,5.6-5.2,5.5c-1.5-0.1-2.2-0.8-2.4-2.3c0-0.2-0.1-0.5-0.1-0.7c-0.1-0.7-0.1-0.7-0.8-0.7c-2.2,0-4.4,0-6.6,0
			c-0.5,0-0.8,0.2-1,0.5c-0.5,0.8-1,1.6-1.8,2.1c-1.1,0.9-2.4,1.2-3.8,0.9c-1.5-0.3-2.2-1.3-1.9-2.8c0.2-0.8,0.5-1.6,1-2.4
			c3.8-5.8,7.7-11.6,11.5-17.4c0.3-0.5,0.7-1,1.1-1.5c1-1.1,2.2-1.7,3.7-1.6C225.6,12.5,225.9,12.5,226.3,12.5
			C226.3,12.5,226.3,12.5,226.3,12.5z M223.8,20.8c-1.7,2.8-3.4,5.6-5.1,8.5c1.6,0,3.2,0,4.8,0c0.3,0,0.3-0.1,0.3-0.4
			C223.8,26.3,223.8,23.6,223.8,20.8z"/>
		<path class="st1" d="M114.5,12.5c0.7,0,1.4-0.1,2.1,0.1c0.9,0.2,1.4,0.7,1.6,1.5c0.3,1,0.3,2.1,0.4,3.1c0.2,3.9,0.5,7.7,0.7,11.6
			c0.1,1.5,0.2,2.9,0.3,4.4c0.1,3.8-3.1,5.7-5.9,5c-0.9-0.2-1.4-0.9-1.6-1.8c-0.1-0.3-0.1-0.7-0.1-1c-0.1-0.9,0-0.8-0.9-0.8
			c-2.2,0-4.3,0-6.5,0c-0.5,0-0.8,0.2-1.1,0.6c-0.4,0.6-0.8,1.3-1.3,1.8c-1.2,1.2-2.7,1.6-4.3,1.2c-1.1-0.2-1.8-1.2-1.7-2.3
			c0.1-0.9,0.3-1.8,0.9-2.6c3.8-5.9,7.7-11.8,11.5-17.6c0.3-0.4,0.6-0.8,0.8-1.1C110.7,12.8,112.5,12.3,114.5,12.5z M112,20.8
			c-1.7,2.8-3.3,5.6-5,8.5c1.6,0,3.1,0,4.6,0c0.2,0,0.3-0.1,0.3-0.3C112,26.3,112,23.6,112,20.8z"/>
		<path class="st1" d="M150.4,38.2c-0.5,0-1,0-1.6-0.2c-1.2-0.4-1.8-1.3-1.5-2.6c0.3-1.5,0.8-2.9,1.3-4.3c1.5-4.9,3.1-9.8,4.6-14.7
			c1.1-3.6,4.4-4.3,6.9-3.7c1.5,0.4,2.2,1.5,1.7,3c-0.6,2.1-1.3,4.2-1.9,6.3c-1.3,4.1-2.6,8.1-3.8,12.2
			C155.2,36.8,153.3,38.2,150.4,38.2z"/>
		<path class="st1" d="M230.7,4.4c0.4,0,0.8,0.1,1.1,0.3c0.5,0.3,0.7,0.9,0.4,1.5c-0.2,0.4-0.5,0.8-0.9,1.1c-1.5,1.1-3,2.2-4.5,3.3
			c-0.4,0.3-0.9,0.6-1.5,0.6c-0.3,0-0.7,0-0.9-0.3c-0.2-0.3-0.1-0.6,0-0.9c0.1-0.2,0.2-0.4,0.3-0.5c1.3-1.4,2.7-2.9,4.1-4.3
			C229.3,4.7,229.9,4.3,230.7,4.4z"/>
	</g>
</g>
</svg>
